<?xml version="1.0" encoding="UTF-8"?>
<svg version="1.1" xmlns="http://www.w3.org/2000/svg" width="408" height="612">
<path d="M0 0 C1.17175781 0.33773437 2.34351563 0.67546875 3.55078125 1.0234375 C19.19538785 6.11199466 33.49624114 14.38131682 46 25 C46.92167969 25.77085938 47.84335937 26.54171875 48.79296875 27.3359375 C53.29662698 31.20419589 53.29662698 31.20419589 55 33 C55 33.66 55 34.32 55 35 C55.66 35 56.32 35 57 35 C58.6538081 36.90172815 60.17921978 38.79958862 61.6875 40.8125 C62.13593262 41.40708008 62.58436523 42.00166016 63.04638672 42.61425781 C72.66635651 55.50288186 80.25920013 69.29679722 84.875 84.75 C85.16141357 85.70350342 85.16141357 85.70350342 85.45361328 86.67626953 C88.59145136 97.9389177 89.41781116 109.35295546 89.4375 121 C89.43889984 121.67131958 89.44029968 122.34263916 89.44174194 123.03430176 C89.41373686 139.47596314 86.46499951 154.27522434 79 169 C77.93185779 171.64695003 76.96342207 174.31255949 76 177 C75.34 177 74.68 177 74 177 C73.95875 177.66 73.9175 178.32 73.875 179 C72.78437093 182.73929968 70.8611286 185.06548213 68.47265625 188.09765625 C66.9149741 190.02757296 66.9149741 190.02757296 65.5625 192.4375 C63.0685425 196.5275903 60.21456232 200.44461662 57 204 C56.34 204 55.68 204 55 204 C54.75636719 204.57878906 54.51273438 205.15757812 54.26171875 205.75390625 C50.65978586 212.16601588 43.07449587 217.03298229 37 221 C36.34 221 35.68 221 35 221 C35 221.66 35 222.32 35 223 C26.17226387 228.08397853 17.41774518 233.07074208 8 237 C7.04867187 237.42539062 7.04867187 237.42539062 6.078125 237.859375 C-3.04018986 241.67815644 -13.17708719 243.22818713 -23 243 C-24.62545773 206.37964771 -24.70088105 169.61870236 -23 133 C-19.69456578 132.26824761 -16.59263602 131.85991309 -13.2097168 131.79467773 C-12.28913986 131.77473251 -11.36856293 131.75478729 -10.42008972 131.73423767 C-8.94950859 131.70916893 -8.94950859 131.70916893 -7.44921875 131.68359375 C-6.43527542 131.66281265 -5.42133209 131.64203156 -4.37666321 131.62062073 C-1.14700915 131.55538886 2.08272421 131.49636298 5.3125 131.4375 C7.50586748 131.39428971 9.69922703 131.35067462 11.89257812 131.30664062 C17.26163874 131.19897501 22.63076206 131.09970533 28 131 C28.33 122.75 28.66 114.5 29 106 C23.49505859 106.01740234 23.49505859 106.01740234 17.87890625 106.03515625 C14.34106533 106.04294552 10.80322536 106.04902302 7.26538086 106.05493164 C4.79857967 106.05997356 2.33178148 106.06680691 -0.13500977 106.07543945 C-3.67204529 106.08751125 -7.20904145 106.09322956 -10.74609375 106.09765625 C-11.85649521 106.10281754 -12.96689667 106.10797882 -14.11094666 106.11329651 C-15.64242088 106.11340981 -15.64242088 106.11340981 -17.20483398 106.11352539 C-18.56051735 106.11685631 -18.56051735 106.11685631 -19.94358826 106.12025452 C-22 106 -22 106 -23 105 C-23.12185143 103.65016252 -23.17766831 102.29425299 -23.20532227 100.93920898 C-23.22526749 100.07839218 -23.24521271 99.21757538 -23.26576233 98.33067322 C-23.28247482 97.39526199 -23.29918732 96.45985077 -23.31640625 95.49609375 C-23.33718735 94.54307877 -23.35796844 93.59006378 -23.37937927 92.60816956 C-23.44498177 89.5513559 -23.50380918 86.49445344 -23.5625 83.4375 C-23.60567506 81.37043337 -23.64928901 79.30337586 -23.69335938 77.23632812 C-23.80150336 72.15764192 -23.9004969 67.07889239 -24 62 C-31.92 62 -39.84 62 -48 62 C-48.06058594 65.09246094 -48.12117188 68.18492187 -48.18359375 71.37109375 C-48.24533109 74.35297217 -48.30874032 77.33481064 -48.37231445 80.31665039 C-48.41573334 82.39539057 -48.45740312 84.47416803 -48.49731445 86.55297852 C-48.55484921 89.53413145 -48.61859119 92.51509549 -48.68359375 95.49609375 C-48.70030624 96.43150497 -48.71701874 97.3669162 -48.73423767 98.33067322 C-48.75418289 99.19149002 -48.77412811 100.05230682 -48.79467773 100.93920898 C-48.81022202 101.70087875 -48.8257663 102.46254852 -48.84178162 103.24729919 C-49 105 -49 105 -50 106 C-51.56448383 106.12263388 -53.13432772 106.17779522 -54.70336914 106.20532227 C-55.70433121 106.22526749 -56.70529327 106.24521271 -57.73658752 106.26576233 C-58.8251152 106.28247482 -59.91364288 106.29918732 -61.03515625 106.31640625 C-62.14354355 106.33718735 -63.25193085 106.35796844 -64.39390564 106.37937927 C-67.95003808 106.44499623 -71.50624703 106.50381596 -75.0625 106.5625 C-77.46680493 106.60567368 -79.87110199 106.64928758 -82.27539062 106.69335938 C-88.18351635 106.80152195 -94.0916964 106.9005051 -100 107 C-100 115.25 -100 123.5 -100 132 C-83.17 132.33 -66.34 132.66 -49 133 C-49 169.3 -49 205.6 -49 243 C-68.87023101 243 -84.96492957 235.50147452 -102 226 C-102.97066406 225.46632813 -103.94132812 224.93265625 -104.94140625 224.3828125 C-105.62074219 223.92648437 -106.30007812 223.47015625 -107 223 C-107 222.34 -107 221.68 -107 221 C-108.05767578 220.64421875 -108.05767578 220.64421875 -109.13671875 220.28125 C-112.50286868 218.77497827 -114.96983173 216.84415483 -117.8125 214.5 C-119.27623047 213.30890625 -119.27623047 213.30890625 -120.76953125 212.09375 C-121.50558594 211.4028125 -122.24164063 210.711875 -123 210 C-123 209.34 -123 208.68 -123 208 C-124.32 207.34 -125.64 206.68 -127 206 C-127 205.34 -127 204.68 -127 204 C-127.66 204 -128.32 204 -129 204 C-130.46453201 202.26403741 -131.84628784 200.457913 -133.1875 198.625 C-133.58606201 198.08133789 -133.98462402 197.53767578 -134.39526367 196.97753906 C-135.60366603 195.32319882 -136.80202602 193.6619002 -138 192 C-138.66257812 191.09507812 -139.32515625 190.19015625 -140.0078125 189.2578125 C-143.53818746 184.35196677 -146.49689988 179.49461001 -149 174 C-149.39960938 173.18015625 -149.79921875 172.3603125 -150.2109375 171.515625 C-154.53862426 162.44059701 -157.90966559 153.03107656 -159 143 C-159.33 142.01 -159.66 141.02 -160 140 C-159.505 139.01 -159.505 139.01 -159 138 C-159.66 138 -160.32 138 -161 138 C-161.04991513 133.34099845 -161.0859601 128.68215697 -161.10986328 124.02294922 C-161.11984159 122.44219242 -161.13342907 120.86145369 -161.15087891 119.28076172 C-161.24348223 110.66865226 -161.27987039 102.37832226 -159 94 C-158.70480469 92.81792969 -158.40960938 91.63585937 -158.10546875 90.41796875 C-154.64361811 78.23520075 -150.41883431 66.94358637 -144 56 C-143.48695313 55.071875 -142.97390625 54.14375 -142.4453125 53.1875 C-141.96835938 52.465625 -141.49140625 51.74375 -141 51 C-140.34 51 -139.68 51 -139 51 C-138.73445313 50.26265625 -138.46890625 49.5253125 -138.1953125 48.765625 C-136.24466095 44.25235278 -133.11024135 40.77055053 -130 37 C-129.4121875 36.26394531 -128.824375 35.52789062 -128.21875 34.76953125 C-124.27747146 30.05168723 -119.97113857 26.18369703 -115.125 22.4375 C-114.55313965 21.99543213 -113.9812793 21.55336426 -113.39208984 21.09790039 C-109.26525498 18 -109.26525498 18 -107 18 C-107 17.34 -107 16.68 -107 16 C-73.12407114 -2.38851475 -38.03820908 -11.05221824 0 0 Z M-60 15 C-60.90621094 15.16628906 -61.81242187 15.33257812 -62.74609375 15.50390625 C-78.22285519 18.56615317 -93.81862006 27.06468846 -106 37 C-106 37.66 -106 38.32 -106 39 C-106.556875 39.226875 -107.11375 39.45375 -107.6875 39.6875 C-110.6469509 41.36718835 -112.66126784 43.54133285 -115 46 C-115.598125 46.556875 -116.19625 47.11375 -116.8125 47.6875 C-118.22363777 48.95218271 -118.22363777 48.95218271 -118 51 C-119.485 51.495 -119.485 51.495 -121 52 C-123.92419744 55.82347992 -126.41005909 59.94463084 -129 64 C-129.48082031 64.68707031 -129.96164063 65.37414062 -130.45703125 66.08203125 C-133.99497406 71.23731934 -135.88972825 76.83056523 -137.88671875 82.73046875 C-139 86 -139 86 -140.04296875 88.42578125 C-147.28068594 107.8937634 -144.89950554 130.36931445 -140 150 C-139.74992187 151.02996094 -139.49984375 152.05992187 -139.2421875 153.12109375 C-137.60690603 159.14532031 -134.91839418 164.50321873 -132 170 C-131.39199128 171.20640466 -130.78711554 172.4144018 -130.1875 173.625 C-129.795625 174.40875 -129.40375 175.1925 -129 176 C-128.34 176 -127.68 176 -127 176 C-126.773125 176.680625 -126.54625 177.36125 -126.3125 178.0625 C-124.68773854 181.6988709 -122.67196743 185.02829263 -120 188 C-119.34 188 -118.68 188 -118 188 C-117.95875 188.556875 -117.9175 189.11375 -117.875 189.6875 C-116.80698104 192.51012153 -115.13990442 193.76538798 -112.765625 195.55859375 C-111 197 -111 197 -108.703125 199.35546875 C-105.82505677 202.17115111 -102.77622646 204.55443517 -99.5 206.875 C-98.89051514 207.30699707 -98.28103027 207.73899414 -97.65307617 208.18408203 C-82.96678319 218.56971415 -82.96678319 218.56971415 -66 223 C-65.01369181 214.36996063 -64.86774532 205.82260826 -64.90234375 197.14453125 C-64.90421381 195.74777782 -64.90563493 194.35102373 -64.90663147 192.95426941 C-64.9104104 189.31625488 -64.92019995 185.67828165 -64.93133545 182.0402832 C-64.94165022 178.31266844 -64.94615044 174.58504686 -64.95117188 170.85742188 C-64.96182741 163.57159596 -64.97884669 156.28580381 -65 149 C-66.27117676 148.99589111 -67.54235352 148.99178223 -68.85205078 148.98754883 C-73.58243991 148.96572567 -78.31200102 148.91140254 -83.04199219 148.84741211 C-85.08650762 148.82425993 -87.13114186 148.80984294 -89.17578125 148.80444336 C-92.12054231 148.79513356 -95.06344209 148.75409842 -98.0078125 148.70703125 C-98.9174173 148.7109639 -99.82702209 148.71489655 -100.76419067 148.71894836 C-105.18533111 148.61801747 -107.56073981 148.26125342 -111.43701172 145.95581055 C-116.66977031 139.92104123 -117.46155866 134.04082036 -117.109375 126.265625 C-117.08530579 125.46517761 -117.06123657 124.66473022 -117.03643799 123.84002686 C-116.98315796 122.1624636 -116.92224912 120.48512658 -116.85400391 118.80810547 C-116.74973411 116.24346 -116.66773674 113.67885113 -116.58984375 111.11328125 C-116.53513427 109.47651921 -116.47918814 107.83979794 -116.421875 106.203125 C-116.39575134 105.43953674 -116.36962769 104.67594849 -116.3427124 103.88922119 C-116.04665006 96.7481009 -116.04665006 96.7481009 -115 94 C-113.0625 92.8125 -113.0625 92.8125 -111 92 C-110.34 91.67 -109.68 91.34 -109 91 C-107.61182327 90.88273341 -106.21851286 90.82318594 -104.82568359 90.79467773 C-103.53457169 90.7647599 -103.53457169 90.7647599 -102.21737671 90.73423767 C-101.28712677 90.71752518 -100.35687683 90.70081268 -99.3984375 90.68359375 C-98.44683746 90.66281265 -97.49523743 90.64203156 -96.51480103 90.62062073 C-93.46827568 90.55511867 -90.42166257 90.4962372 -87.375 90.4375 C-85.31249084 90.39431541 -83.24999063 90.35070114 -81.1875 90.30664062 C-76.12509046 90.1994366 -71.06259245 90.09817098 -66 90 C-65.01077004 85.91270148 -64.91155301 82.13944544 -64.97265625 77.94140625 C-64.98530157 76.57226814 -64.9976626 75.20312738 -65.00976562 73.83398438 C-65.03455129 71.69677269 -65.06254373 69.55970241 -65.09594727 67.42260742 C-65.12632716 65.34553175 -65.14397478 63.26863448 -65.16015625 61.19140625 C-65.17699463 59.95592041 -65.19383301 58.72043457 -65.21118164 57.44750977 C-64.83018477 51.22779087 -64.83018477 51.22779087 -63 48 C-57.44794939 44.88179954 -51.28565384 44.54242612 -45.0546875 44.56640625 C-44.24057404 44.5611644 -43.42646057 44.55592255 -42.587677 44.55052185 C-40.8818678 44.54414949 -39.17601437 44.5453759 -37.47021484 44.55395508 C-34.87387746 44.5625037 -32.27971685 44.53357729 -29.68359375 44.50195312 C-28.01562565 44.50034159 -26.3476537 44.50091773 -24.6796875 44.50390625 C-23.91284637 44.49267227 -23.14600525 44.48143829 -22.35592651 44.46986389 C-16.82531036 44.54081806 -13.40656186 45.55983841 -9 49 C-6.86528706 53.90334184 -6.6722434 58.8343493 -6.5859375 64.12109375 C-6.55688828 65.23823509 -6.55688828 65.23823509 -6.5272522 66.37794495 C-6.46799844 68.73101749 -6.42129086 71.08414043 -6.375 73.4375 C-6.33677015 75.04363983 -6.29771558 76.64976025 -6.2578125 78.25585938 C-6.1623425 82.17041325 -6.07811457 86.08506291 -6 90 C-4.68281982 90.01458252 -3.36563965 90.02916504 -2.00854492 90.04418945 C2.87259238 90.10210713 7.75326518 90.17934036 12.6340332 90.26245117 C14.74756336 90.29573128 16.86118306 90.32375353 18.97485352 90.34643555 C22.01096806 90.37992472 25.04625975 90.43223764 28.08203125 90.48828125 C29.02899368 90.49467117 29.97595612 90.5010611 30.95161438 90.50764465 C31.83230087 90.52743881 32.71298737 90.54723297 33.62036133 90.56762695 C34.78285149 90.58428154 34.78285149 90.58428154 35.96882629 90.60127258 C38.49302099 91.09678197 39.29452678 92.14092114 41 94 C41.66 94 42.32 94 43 94 C43.2165625 94.8971875 43.2165625 94.8971875 43.4375 95.8125 C43.8872439 97.56150404 44.42892341 99.28677023 45 101 C45.12062209 103.56504709 45.18808412 106.10209147 45.203125 108.66796875 C45.20882507 109.42161209 45.21452515 110.17525543 45.22039795 110.95173645 C45.22984074 112.54796957 45.23637907 114.14422212 45.24023438 115.74047852 C45.24989554 118.16132551 45.28090596 120.58130692 45.3125 123.00195312 C45.31903514 124.55728666 45.3242836 126.11262623 45.328125 127.66796875 C45.3404718 128.38284958 45.3528186 129.09773041 45.36553955 129.83427429 C45.34341456 134.92439476 44.71902255 139.60128926 42 144 C36.61302193 148.31917682 31.86891052 148.59999215 25.12890625 148.609375 C24.206577 148.62591125 23.28424774 148.64244751 22.33396912 148.65948486 C19.41007705 148.70777447 16.48670437 148.72929341 13.5625 148.75 C11.57093768 148.77817561 9.57939935 148.80810526 7.58789062 148.83984375 C2.72530321 148.91352832 -2.1369991 148.96321914 -7 149 C-7.02332161 156.74615769 -7.04101499 164.49230693 -7.05181217 172.23849106 C-7.0569981 175.8365784 -7.06401634 179.43464147 -7.07543945 183.03271484 C-7.08642266 186.51460249 -7.09230901 189.99646701 -7.09487724 193.47837067 C-7.09758406 195.43226383 -7.1053707 197.38614789 -7.11329651 199.34002686 C-7.11376723 206.94556778 -6.77048232 214.43288189 -6 222 C10.65396244 220.55182935 29.83619594 208.59246977 40.5 196.0625 C41.325 195.051875 42.15 194.04125 43 193 C43.804375 192.21625 44.60875 191.4325 45.4375 190.625 C51.39682474 184.52032588 55.83644918 177.41025754 60 170 C60.51820313 169.08347656 61.03640625 168.16695312 61.5703125 167.22265625 C65.70711999 159.4791347 68.1727752 151.5670711 70 143 C70.17877686 142.17991455 70.35755371 141.3598291 70.54174805 140.51489258 C71.94101938 133.575878 72.34983893 126.88218638 72.3125 119.8125 C72.30831055 118.72042236 72.30412109 117.62834473 72.29980469 116.50317383 C71.9960316 94.61050585 65.05858998 76.10168199 53 58 C52.50886719 57.2575 52.01773438 56.515 51.51171875 55.75 C50.40064655 54.12436044 49.20888405 52.55427949 48 51 C47.34 51 46.68 51 46 51 C45.5978125 50.11054688 45.5978125 50.11054688 45.1875 49.203125 C36.70596753 33.46765029 13.7831344 22.19749512 -2.59375 16.9453125 C-12.85167282 14.09850364 -23.37073446 12.51888426 -34 12 C-34.70640625 11.94714844 -35.4128125 11.89429687 -36.140625 11.83984375 C-44.17715195 11.48709543 -52.1541571 13.4702315 -60 15 Z " fill="#EFEFEF" transform="translate(240,102)"/>
<path d="M0 0 C7.76488116 5.23285469 11.86094888 12.74284097 13.8125 21.75 C14.61441358 32.36480344 13.46592813 41.30013532 7 50 C-0.29855623 57.64282775 -7.32357971 60.95910315 -17.875 61.3125 C-27.36781215 61.03286677 -34.29185799 58.75033199 -41.12890625 52.03515625 C-47.8954094 44.67534802 -50.71551319 35.96456065 -50.41796875 26.00390625 C-48.99848791 15.80221687 -45.32904615 7.14481367 -37.1875 0.8125 C-25.73310283 -5.70078467 -11.73690801 -6.7365685 0 0 Z M-31.875 16.125 C-35.54414266 21.79219064 -35.49865018 28.2699203 -34.375 34.75 C-33.03585956 39.73653612 -30.74324526 43.39634699 -26.17578125 46.06640625 C-21.12010914 48.28136672 -17.34419419 48.22653637 -12 47 C-6.68573411 44.58442459 -3.80070612 41.12187121 -1.75 35.6875 C-0.0734646 27.44453429 -1.04795777 22.31272048 -5 15 C-7.43185185 11.35222222 -9.91495508 10.18546402 -14 9 C-21.49610384 7.7653476 -27.08959815 10.32492841 -31.875 16.125 Z " fill="#EBEBEB" transform="translate(199,373)"/>
<path d="M0 0 C6.93 0.495 6.93 0.495 14 1 C14.33 8.59 14.66 16.18 15 24 C22.26 24 29.52 24 37 24 C37 16.41 37 8.82 37 1 C41.62 1 46.24 1 51 1 C51 21.13 51 41.26 51 62 C46.38 62 41.76 62 37 62 C36.67 54.41 36.34 46.82 36 39 C28.74 38.67 21.48 38.34 14 38 C14 45.92 14 53.84 14 62 C9.05 62 4.1 62 -1 62 C-0.67 41.54 -0.34 21.08 0 0 Z " fill="#EEEEEE" transform="translate(89,370)"/>
<path d="M0 0 C0 4.29 0 8.58 0 13 C-8.58 13 -17.16 13 -26 13 C-26 16.63 -26 20.26 -26 24 C-18.41 24 -10.82 24 -3 24 C-2.0234375 33.1796875 -2.0234375 33.1796875 -2 36 C-4 38 -4 38 -6.24658203 38.22705078 C-7.15778809 38.21657715 -8.06899414 38.20610352 -9.0078125 38.1953125 C-9.99394531 38.18886719 -10.98007812 38.18242187 -11.99609375 38.17578125 C-13.02863281 38.15902344 -14.06117188 38.14226562 -15.125 38.125 C-16.16527344 38.11597656 -17.20554687 38.10695313 -18.27734375 38.09765625 C-20.85165997 38.07403867 -23.42585838 38.03816684 -26 38 C-26 41.63 -26 45.26 -26 49 C-25.21761963 48.99476318 -24.43523926 48.98952637 -23.62915039 48.98413086 C-20.10694167 48.96342894 -16.5847457 48.95036162 -13.0625 48.9375 C-11.21495117 48.92493164 -11.21495117 48.92493164 -9.33007812 48.91210938 C-8.16025391 48.90888672 -6.99042969 48.90566406 -5.78515625 48.90234375 C-4.15912476 48.89448853 -4.15912476 48.89448853 -2.50024414 48.88647461 C0 49 0 49 1 50 C1 53.96 1 57.92 1 62 C-12.86 62 -26.72 62 -41 62 C-40.67 41.87 -40.34 21.74 -40 1 C-33.77125 0.835 -27.5425 0.67 -21.125 0.5 C-19.15934082 0.44779297 -17.19368164 0.39558594 -15.16845703 0.34179688 C-13.61490941 0.30076036 -12.06136126 0.25974339 -10.5078125 0.21875 C-9.29242798 0.1863623 -9.29242798 0.1863623 -8.05249023 0.15332031 C-2.2281436 0 -2.2281436 0 0 0 Z " fill="#EFEFEF" transform="translate(318,370)"/>
<path d="M0 0 C4.0018325 -0.04978833 8.00354265 -0.08590164 12.00561523 -0.10986328 C13.36437118 -0.11986243 14.72310594 -0.13346624 16.08178711 -0.15087891 C18.04531296 -0.17539594 20.00900201 -0.18546962 21.97265625 -0.1953125 C23.15093994 -0.20578613 24.32922363 -0.21625977 25.54321289 -0.22705078 C31.4029839 0.15783424 36.21412782 1.44578496 40.6484375 5.44140625 C43.8867029 9.17570652 46.25191084 14.10587455 47 19 C46.03230925 26.0898159 44.53518855 32.28920123 39 37 C30.78450111 42.14277293 22.33353524 41.31639103 13 41 C13 47.6 13 54.2 13 61 C8.71 61 4.42 61 0 61 C-1.97807632 40.28318281 -2.76372856 20.65393575 0 0 Z M13 12 C13 17.61 13 23.22 13 29 C15.8153125 29.0928125 15.8153125 29.0928125 18.6875 29.1875 C20.27111328 29.23970703 20.27111328 29.23970703 21.88671875 29.29296875 C25.41836599 28.96063055 27.18255429 28.11678496 30 26 C32.18883632 23.33212921 32.18883632 23.33212921 31.96875 21.0625 C31.12363722 17.34400377 30.58111352 15.47681109 27.5625 13 C22.5774209 11.60067955 18.17270697 11.81075462 13 12 Z " fill="#F0F0F0" transform="translate(223,371)"/>
<path d="M0 0 C5.21979128 -0.1799928 9.07262981 0.02905192 14 2 C14.66 1.34 15.32 0.68 16 0 C19.01107177 -0.34553283 21.09312777 -0.57248153 24 0 C27 2.5 27 2.5 29 5 C29.33 3.35 29.66 1.7 30 0 C31.65 0 33.3 0 35 0 C35.66 1.32 36.32 2.64 37 4 C40.12197478 2.6910428 40.12197478 2.6910428 42 0 C43.65 0 45.3 0 47 0 C47 0.99 47 1.98 47 3 C47.66 3 48.32 3 49 3 C49 2.01 49 1.02 49 0 C51.25 -0.25 51.25 -0.25 54 0 C56.3125 2 56.3125 2 58 4 C58.391875 3.34 58.78375 2.68 59.1875 2 C61 0 61 0 63.6875 -0.25 C64.450625 -0.1675 65.21375 -0.085 66 0 C66 0.99 66 1.98 66 3 C66.66 3 67.32 3 68 3 C68 2.01 68 1.02 68 0 C72.66666667 0 77.33333333 0 82 0 C82 0.99 82 1.98 82 3 C82.66 3 83.32 3 84 3 C84 2.01 84 1.02 84 0 C84.7425 0.185625 85.485 0.37125 86.25 0.5625 C89.04042671 1.00643152 90.34410484 0.74697051 93 0 C94.66623639 -0.03786901 96.33397597 -0.04627845 98 0 C98.495 0.99 98.495 0.99 99 2 C99.33 1.34 99.66 0.68 100 0 C101.32 0 102.64 0 104 0 C104.495 1.485 104.495 1.485 105 3 C105.33 2.01 105.66 1.02 106 0 C109.96 0 113.92 0 118 0 C118.495 1.98 118.495 1.98 119 4 C117.68 4 116.36 4 115 4 C114.67 8.29 114.34 12.58 114 17 C112.35 16.67 110.7 16.34 109 16 C109.020625 15.071875 109.04125 14.14375 109.0625 13.1875 C109.15769604 9.97713989 109.15769604 9.97713989 108 7 C108.33 6.34 108.66 5.68 109 5 C108.01 5 107.02 5 106 5 C105.67 8.63 105.34 12.26 105 16 C100.64636322 16.87072736 97.38572916 17 93 17 C90.75 14.5 90.75 14.5 89 12 C88.67 13.65 88.34 15.3 88 17 C83.25 16.25 83.25 16.25 81 14 C80.62875 14.495 80.2575 14.99 79.875 15.5 C78 17 78 17 75 17.375 C71.66655157 16.95831895 71.07896611 16.47495966 69 14 C68.01 13.67 67.02 13.34 66 13 C66 14.32 66 15.64 66 17 C64.02 16.67 62.04 16.34 60 16 C60 15.34 60 14.68 60 14 C58.02 14 56.04 14 54 14 C53.67 14.99 53.34 15.98 53 17 C49.7 17 46.4 17 43 17 C42.505 15.02 42.505 15.02 42 13 C41.67 13.66 41.34 14.32 41 15 C39.02 14.67 37.04 14.34 35 14 C34.67 14.99 34.34 15.98 34 17 C29.25 16.25 29.25 16.25 27 14 C26.195625 14.7425 26.195625 14.7425 25.375 15.5 C22.31754465 17.43102443 20.561827 17.44522837 17 17 C14.625 15.625 14.625 15.625 13 14 C13 13.34 13 12.68 13 12 C12.34 12 11.68 12 11 12 C10.67 12.99 10.34 13.98 10 15 C7 17 7 17 3.5625 16.9375 C0 16 0 16 -2.4375 13.8125 C-4.26337747 10.52592056 -4.48324239 8.70485832 -4 5 C-3.34 4.01 -2.68 3.02 -2 2 C-1.34 2 -0.68 2 0 2 C0 1.34 0 0.68 0 0 Z M11 3 C11 3.66 11 4.32 11 5 C11.66 4.67 12.32 4.34 13 4 C12.34 3.67 11.68 3.34 11 3 Z M3 4 C1.63258445 6.25221384 0.95933522 7.52557758 1.1875 10.1875 C1.455625 10.785625 1.72375 11.38375 2 12 C2.99 12.33 3.98 12.66 5 13 C6.67580052 12.02792965 6.67580052 12.02792965 8.1875 10.5625 C9.115625 9.716875 10.04375 8.87125 11 8 C8.31752816 5.31752816 6.87224464 4 3 4 Z M21 4 C20.01 4.33 19.02 4.66 18 5 C18 5.99 18 6.98 18 8 C17.01 8.495 17.01 8.495 16 9 C17.32 10.32 18.64 11.64 20 13 C21.60414215 11.81476003 21.60414215 11.81476003 23 10 C23.25069913 7.37429296 23.25069913 7.37429296 23 5 C22.34 4.67 21.68 4.34 21 4 Z M99 6 C99 7.98 99 9.96 99 12 C99.33 12 99.66 12 100 12 C100 10.02 100 8.04 100 6 C99.67 6 99.34 6 99 6 Z M73 8 C73.33 9.32 73.66 10.64 74 12 C74.99 12 75.98 12 77 12 C76.67 10.68 76.34 9.36 76 8 C75.01 8 74.02 8 73 8 Z M61 10 C60.67 10.99 60.34 11.98 60 13 C60.66 13 61.32 13 62 13 C61.67 12.01 61.34 11.02 61 10 Z " fill="#CDCECE" transform="translate(90,449)"/>
<path d="M0 0 C4.29 0 8.58 0 13 0 C13 0.66 13 1.32 13 2 C13.66 2 14.32 2 15 2 C15.33 1.34 15.66 0.68 16 0 C23.78242678 -0.25941423 23.78242678 -0.25941423 28 2 C30.79564735 1.61412603 30.79564735 1.61412603 33 0 C39.23529412 -0.47058824 39.23529412 -0.47058824 42.4375 1.5 C42.953125 1.995 43.46875 2.49 44 3 C44.33 2.01 44.66 1.02 45 0 C51.75 0.875 51.75 0.875 54 2 C54 1.34 54 0.68 54 0 C55.65 0 57.3 0 59 0 C59 5.61 59 11.22 59 17 C57.35 17 55.7 17 54 17 C54 14.69 54 12.38 54 10 C52.68 10 51.36 10 50 10 C50 12.31 50 14.62 50 17 C48.35 17 46.7 17 45 17 C44.67 13.7 44.34 10.4 44 7 C43.01 7.33 42.02 7.66 41 8 C40.566875 7.505 40.13375 7.01 39.6875 6.5 C38.00259517 4.66781808 38.00259517 4.66781808 35 5 C34.67 6.65 34.34 8.3 34 10 C35.32 10.66 36.64 11.32 38 12 C38.66 11.34 39.32 10.68 40 10 C42.125 10.375 42.125 10.375 44 11 C44 11.99 44 12.98 44 14 C40.92771594 16.60678647 39.43300726 17.02986257 35.375 16.75 C32 16 32 16 29 15 C29 15.66 29 16.32 29 17 C27.35 17 25.7 17 24 17 C24 16.34 24 15.68 24 15 C23.01 15 22.02 15 21 15 C20.67 15.66 20.34 16.32 20 17 C18.35 16.67 16.7 16.34 15 16 C14.67 14.68 14.34 13.36 14 12 C13.319375 12.845625 12.63875 13.69125 11.9375 14.5625 C9 17 9 17 5.4375 16.9375 C2 16 2 16 -2 14 C-2 10.37 -2 6.74 -2 3 C-1.34 3 -0.68 3 0 3 C0 2.01 0 1.02 0 0 Z M50 2 C50 3.32 50 4.64 50 6 C51.32 5.67 52.64 5.34 54 5 C53.34 5 52.68 5 52 5 C51.67 4.01 51.34 3.02 51 2 C50.67 2 50.34 2 50 2 Z M5 3 C5 5.31 5 7.62 5 10 C6.4606285 7.35261084 7 6.10551666 7 3 C6.34 3 5.68 3 5 3 Z M28 5 C29 8 29 8 29 8 Z " fill="#E2E3E3" transform="translate(262,449)"/>
<path d="M0 0 C4.29 0 8.58 0 13 0 C13 0.66 13 1.32 13 2 C13.66 2 14.32 2 15 2 C15.33 1.34 15.66 0.68 16 0 C20.01519188 -0.2041623 23.1390184 -0.25111963 27 0.875 C29.49794793 3.52906968 29.297364 4.62044951 29.3125 8.1875 C29.23210847 9.79303374 29.1352403 11.39815374 29 13 C27.68 11.68 26.36 10.36 25 9 C25 9.99 25 10.98 25 12 C24.01 12 23.02 12 22 12 C22 11.34 22 10.68 22 10 C21.01 10 20.02 10 19 10 C19 10.66 19 11.32 19 12 C19.99 12.33 20.98 12.66 22 13 C21.01 13.495 21.01 13.495 20 14 C20 14.99 20 15.98 20 17 C18.35 16.67 16.7 16.34 15 16 C14.67 14.68 14.34 13.36 14 12 C13.319375 12.845625 12.63875 13.69125 11.9375 14.5625 C9 17 9 17 5.4375 16.9375 C2 16 2 16 -2 14 C-2 10.37 -2 6.74 -2 3 C-1.34 3 -0.68 3 0 3 C0 2.01 0 1.02 0 0 Z M5 3 C5 5.31 5 7.62 5 10 C6.4606285 7.35261084 7 6.10551666 7 3 C6.34 3 5.68 3 5 3 Z " fill="#D9DADA" transform="translate(262,449)"/>
<path d="M0 0 C0.99 0.66 1.98 1.32 3 2 C3 2.99 3 3.98 3 5 C3.66 5 4.32 5 5 5 C5 3.35 5 1.7 5 0 C6.65 0 8.3 0 10 0 C10.66 1.32 11.32 2.64 12 4 C12 3.01 12 2.02 12 1 C13.98 0.67 15.96 0.34 18 0 C18.495 7.92 18.495 7.92 19 16 C17.35 16.33 15.7 16.66 14 17 C14 14.69 14 12.38 14 10 C12.68 10 11.36 10 10 10 C10 12.31 10 14.62 10 17 C8.35 17 6.7 17 5 17 C4.67 16.34 4.34 15.68 4 15 C3.319375 15.350625 2.63875 15.70125 1.9375 16.0625 C-1.8180978 17.26109504 -4.20103588 16.98491662 -8 16 C-10.23918419 14.1942063 -10.84945187 12.91646172 -11.3125 10.09765625 C-11.52367996 6.55379249 -11.34553642 4.55285827 -9.4375 1.5 C-6.11203064 -0.54644269 -3.83693587 -0.41857482 0 0 Z M-5 4 C-7.22738107 6.68671748 -7.22738107 6.68671748 -6.875 9.0625 C-5.7413007 11.57283417 -4.51381062 12.02691202 -2 13 C-1.67 12.34 -1.34 11.68 -1 11 C-0.01 10.67 0.98 10.34 2 10 C2 9.01 2 8.02 2 7 C-0.53184488 4.64276511 -1.47190093 4 -5 4 Z M4 8 C3.67 9.65 3.34 11.3 3 13 C3.66 13 4.32 13 5 13 C5 11.35 5 9.7 5 8 C4.67 8 4.34 8 4 8 Z " fill="#B3B5B6" transform="translate(241,449)"/>
<path d="M0 0 C5.21979128 -0.1799928 9.07262981 0.02905192 14 2 C14.66 1.34 15.32 0.68 16 0 C18.68839385 -0.26991906 21.29141936 -0.08737357 24 0 C24.33 0.66 24.66 1.32 25 2 C24.01 2 23.02 2 22 2 C21.67 2.99 21.34 3.98 21 5 C20.01 5 19.02 5 18 5 C18 5.99 18 6.98 18 8 C16.68 7.67 15.36 7.34 14 7 C13.67 8.65 13.34 10.3 13 12 C12.34 12 11.68 12 11 12 C10.67 12.99 10.34 13.98 10 15 C7 17 7 17 3.5625 16.9375 C0 16 0 16 -2.4375 13.8125 C-4.26337747 10.52592056 -4.48324239 8.70485832 -4 5 C-3.34 4.01 -2.68 3.02 -2 2 C-1.34 2 -0.68 2 0 2 C0 1.34 0 0.68 0 0 Z M11 3 C11 3.66 11 4.32 11 5 C11.66 4.67 12.32 4.34 13 4 C12.34 3.67 11.68 3.34 11 3 Z M3 4 C1.63258445 6.25221384 0.95933522 7.52557758 1.1875 10.1875 C1.455625 10.785625 1.72375 11.38375 2 12 C2.99 12.33 3.98 12.66 5 13 C6.67580052 12.02792965 6.67580052 12.02792965 8.1875 10.5625 C9.115625 9.716875 10.04375 8.87125 11 8 C8.31752816 5.31752816 6.87224464 4 3 4 Z " fill="#B4B4B4" transform="translate(90,449)"/>
<path d="M0 0 C2.25 -0.25 2.25 -0.25 5 0 C7.3125 2 7.3125 2 9 4 C9.391875 3.34 9.78375 2.68 10.1875 2 C12 0 12 0 14.6875 -0.25 C15.450625 -0.1675 16.21375 -0.085 17 0 C19.32590854 3.63423209 19.16265833 6.77088331 19 11 C18.01 11.33 17.02 11.66 16 12 C16 12.66 16 13.32 16 14 C15.34 14 14.68 14 14 14 C13.67 12.35 13.34 10.7 13 9 C12.67 10.65 12.34 12.3 12 14 C9.69 14 7.38 14 5 14 C4.67 12.68 4.34 11.36 4 10 C3.01 10 2.02 10 1 10 C1 9.01 1 8.02 1 7 C0.34 7 -0.32 7 -1 7 C-1.33 7.99 -1.66 8.98 -2 10 C-2.93423645 6.98968256 -3.04449911 6.13349732 -2 3 C-1.34 3 -0.68 3 0 3 C0 2.01 0 1.02 0 0 Z " fill="#D7D7D8" transform="translate(139,449)"/>
<path d="M0 0 C3.96 0 7.92 0 12 0 C12.33 1.32 12.66 2.64 13 4 C11.68 4 10.36 4 9 4 C8.67 8.29 8.34 12.58 8 17 C6.35 16.67 4.7 16.34 3 16 C3.020625 15.071875 3.04125 14.14375 3.0625 13.1875 C3.15769604 9.97713989 3.15769604 9.97713989 2 7 C2.33 6.34 2.66 5.68 3 5 C2.01 5 1.02 5 0 5 C-0.33 8.63 -0.66 12.26 -1 16 C-2.32 16 -3.64 16 -5 16 C-5 11.05 -5 6.1 -5 1 C-4.34 1 -3.68 1 -3 1 C-3 1.99 -3 2.98 -3 4 C-2.34 3.67 -1.68 3.34 -1 3 C-0.67 2.01 -0.34 1.02 0 0 Z " fill="#E3E3E3" transform="translate(196,449)"/>
<path d="M0 0 C0.33 5.28 0.66 10.56 1 16 C-0.65 16.33 -2.3 16.66 -4 17 C-4 14.69 -4 12.38 -4 10 C-5.32 10 -6.64 10 -8 10 C-8 12.31 -8 14.62 -8 17 C-9.65 17 -11.3 17 -13 17 C-13.5625 15.0625 -13.5625 15.0625 -14 13 C-13.67 12.67 -13.34 12.34 -13 12 C-12.76636119 10.15108054 -12.58696365 8.29511969 -12.4375 6.4375 C-12.35371094 5.42558594 -12.26992187 4.41367187 -12.18359375 3.37109375 C-12.12300781 2.58863281 -12.06242188 1.80617188 -12 1 C-11.01 1 -10.02 1 -9 1 C-8.67 1.99 -8.34 2.98 -8 4 C-7.34 4 -6.68 4 -6 4 C-6 3.01 -6 2.02 -6 1 C-4 0 -4 0 0 0 Z " fill="#DEDFDE" transform="translate(259,449)"/>
<path d="M0 0 C2.375 -0.1875 2.375 -0.1875 5 0 C5.66 0.99 6.32 1.98 7 3 C7.391875 2.505 7.78375 2.01 8.1875 1.5 C10.55091715 -0.45593143 12.01435003 -0.24207973 15 0 C13.16504854 4.7184466 13.16504854 4.7184466 11.9375 6.8125 C10.51539981 10.13073378 10.35851435 13.41485649 10 17 C8.35 17 6.7 17 5 17 C4.89042969 16.40832031 4.78085938 15.81664062 4.66796875 15.20703125 C3.72820129 10.52347471 2.62190335 7.05203244 0 3 C0 2.01 0 1.02 0 0 Z " fill="#C0C0C0" transform="translate(209,449)"/>
<path d="M0 0 C0.33 0 0.66 0 1 0 C1.33 2.97 1.66 5.94 2 9 C2.99 8.34 3.98 7.68 5 7 C6.32 7.66 7.64 8.32 9 9 C9.66 8.34 10.32 7.68 11 7 C13.125 7.375 13.125 7.375 15 8 C15 8.99 15 9.98 15 11 C11.92771594 13.60678647 10.43300726 14.02986257 6.375 13.75 C3 13 3 13 0 12 C0 12.66 0 13.32 0 14 C-1.65 14 -3.3 14 -5 14 C-5 13.34 -5 12.68 -5 12 C-5.99 11.67 -6.98 11.34 -8 11 C-9.1875 8.9375 -9.1875 8.9375 -10 7 C-9.01 7 -8.02 7 -7 7 C-7 7.66 -7 8.32 -7 9 C-6.01 9 -5.02 9 -4 9 C-3.67 8.01 -3.34 7.02 -3 6 C-2.01 7.485 -2.01 7.485 -1 9 C-0.67 6.03 -0.34 3.06 0 0 Z " fill="#BABABA" transform="translate(291,452)"/>
<path d="M0 0 C2.31 0.33 4.62 0.66 7 1 C7 1.66 7 2.32 7 3 C5.68 3 4.36 3 3 3 C2.67 5.64 2.34 8.28 2 11 C4.475 11.99 4.475 11.99 7 13 C6.67 13.99 6.34 14.98 6 16 C3.25 16.3125 3.25 16.3125 0 16 C-2.94622161 13.36390698 -3.90256913 11.81192395 -4.375 7.875 C-4 5 -4 5 -2 2 C-1.34 2 -0.68 2 0 2 C0 1.34 0 0.68 0 0 Z M8 11 C8.66 11.66 9.32 12.32 10 13 C9.01 12.67 8.02 12.34 7 12 C7.33 11.67 7.66 11.34 8 11 Z " fill="#CACACA" transform="translate(90,449)"/>
<path d="M0 0 C2.4375 1.3125 2.4375 1.3125 4 3 C4 3.99 4 4.98 4 6 C0.65976579 6.09278428 -1.68756695 5.82810826 -5 5 C-5.99 7.64 -6.98 10.28 -8 13 C-8.66 12.67 -9.32 12.34 -10 12 C-10.08131463 10.56344146 -10.13933559 9.1255517 -10.1875 7.6875 C-10.22230469 6.88699219 -10.25710938 6.08648437 -10.29296875 5.26171875 C-10 3 -10 3 -8.703125 1.23046875 C-5.86435777 -0.82047546 -3.37664134 -0.35543593 0 0 Z " fill="#E1E1E1" transform="translate(302,449)"/>
<path d="M0 0 C0.33 0 0.66 0 1 0 C1.33 1.65 1.66 3.3 2 5 C2.66 4.34 3.32 3.68 4 3 C4.45375 3.804375 4.9075 4.60875 5.375 5.4375 C6.74725665 8.08856572 6.74725665 8.08856572 9 9 C9.33 8.01 9.66 7.02 10 6 C11.32 6 12.64 6 14 6 C14.33 7.32 14.66 8.64 15 10 C11.88563368 12.35936842 10.34444332 13.00593868 6.375 12.9375 C3 12 3 12 1.0625 10.4375 C-0.49883222 6.8556202 -0.19450345 3.89006898 0 0 Z " fill="#BCBCBC" transform="translate(230,453)"/>
<path d="M0 0 C0.66 0 1.32 0 2 0 C2.66 0.99 3.32 1.98 4 3 C4.99 3.66 5.98 4.32 7 5 C6.67 5.66 6.34 6.32 6 7 C7.32 6.01 8.64 5.02 10 4 C10 5.32 10 6.64 10 8 C10.66 8.66 11.32 9.32 12 10 C5.68329718 11.21475054 5.68329718 11.21475054 2.8125 10.3125 C1 9 1 9 0.390625 6.8359375 C0.34421875 6.02382813 0.2978125 5.21171875 0.25 4.375 C0.19328125 3.55773437 0.1365625 2.74046875 0.078125 1.8984375 C0.05234375 1.27195312 0.0265625 0.64546875 0 0 Z " fill="#AEB0AF" transform="translate(261,455)"/>
<path d="M0 0 C6.75 0.875 6.75 0.875 9 2 C9 1.34 9 0.68 9 0 C10.65 0 12.3 0 14 0 C14 5.61 14 11.22 14 17 C12.35 17 10.7 17 9 17 C9 14.69 9 12.38 9 10 C9.33 10 9.66 10 10 10 C10 11.98 10 13.96 10 16 C10.99 16 11.98 16 13 16 C13 11.05 13 6.1 13 1 C12.01 1 11.02 1 10 1 C10 2.98 10 4.96 10 7 C8 6 8 6 6 3 C5.67 3.99 5.34 4.98 5 6 C5.66 6.33 6.32 6.66 7 7 C6.01 7 5.02 7 4 7 C4 5.02 4 3.04 4 1 C3.01 1 2.02 1 1 1 C0.67 1.99 0.34 2.98 0 4 C0 2.68 0 1.36 0 0 Z " fill="#808181" transform="translate(307,449)"/>
<path d="M0 0 C2.31 0.33 4.62 0.66 7 1 C6.01 1.495 6.01 1.495 5 2 C5 4.64 5 7.28 5 10 C3.68 9.67 2.36 9.34 1 9 C1 8.01 1 7.02 1 6 C0.34 6 -0.32 6 -1 6 C-0.67 8.64 -0.34 11.28 0 14 C-0.66 14 -1.32 14 -2 14 C-2 10.37 -2 6.74 -2 3 C-1.34 3 -0.68 3 0 3 C0 2.01 0 1.02 0 0 Z " fill="#E8EAEC" transform="translate(262,449)"/>
<path d="M0 0 C0.33 0 0.66 0 1 0 C1.33 3.96 1.66 7.92 2 12 C1.34 12 0.68 12 0 12 C0 12.66 0 13.32 0 14 C-1.65 14 -3.3 14 -5 14 C-5 13.34 -5 12.68 -5 12 C-5.99 11.67 -6.98 11.34 -8 11 C-9.1875 8.9375 -9.1875 8.9375 -10 7 C-9.01 7 -8.02 7 -7 7 C-7 7.66 -7 8.32 -7 9 C-6.01 9 -5.02 9 -4 9 C-3.67 8.01 -3.34 7.02 -3 6 C-2.01 7.485 -2.01 7.485 -1 9 C-0.67 6.03 -0.34 3.06 0 0 Z " fill="#A1A3A1" transform="translate(291,452)"/>
<path d="M0 0 C0 0.66 0 1.32 0 2 C1.45833358 3.62514468 1.45833358 3.62514468 3 5 C2.01 5 1.02 5 0 5 C-0.33 6.65 -0.66 8.3 -1 10 C-2.65 9.67 -4.3 9.34 -6 9 C-6.1875 5.625 -6.1875 5.625 -6 2 C-3 0 -3 0 0 0 Z " fill="#B6B7B7" transform="translate(179,456)"/>
<path d="M0 0 C0.66 0 1.32 0 2 0 C4.02558881 3.34939881 4.21738987 5.86962551 4.125 9.75 C4.10695312 10.73484375 4.08890625 11.7196875 4.0703125 12.734375 C4.03550781 13.85585938 4.03550781 13.85585938 4 15 C2.68 15 1.36 15 0 15 C0 10.05 0 5.1 0 0 Z " fill="#E8E9E9" transform="translate(191,450)"/>
<path d="M0 0 C0.99 0 1.98 0 3 0 C3 4.95 3 9.9 3 15 C2.01 15 1.02 15 0 15 C0 13.02 0 11.04 0 9 C-0.66 9 -1.32 9 -2 9 C-1.34 6.03 -0.68 3.06 0 0 Z " fill="#FCFCFB" transform="translate(317,450)"/>
<path d="M0 0 C2.4375 1 2.4375 1 5 3 C5.76381481 5.72714162 5.85942648 8.14167178 6 11 C5.34 11 4.68 11 4 11 C3.67 9.68 3.34 8.36 3 7 C2.67 7.66 2.34 8.32 2 9 C-0.31 8.01 -2.62 7.02 -5 6 C-4.67 5.01 -4.34 4.02 -4 3 C-4 3.66 -4 4.32 -4 5 C-1.94729537 3.15811388 -1.94729537 3.15811388 -1 1 C-0.67 0.67 -0.34 0.34 0 0 Z " fill="#BFBFBF" transform="translate(129,455)"/>
<path d="M0 0 C0.66 0 1.32 0 2 0 C2.66 0.99 3.32 1.98 4 3 C4.66 2.67 5.32 2.34 6 2 C7.2077558 5.62326739 6.54311128 6.64146369 5 10 C3.68 10 2.36 10 1 10 C0.67 6.7 0.34 3.4 0 0 Z " fill="#B3B3B3" transform="translate(138,456)"/>
<path d="M0 0 C4.62 0 9.24 0 14 0 C14 3.63 14 7.26 14 11 C13.67 11 13.34 11 13 11 C13 8.36 13 5.72 13 3 C9.37 3 5.74 3 2 3 C2 2.34 2 1.68 2 1 C1.34 0.67 0.68 0.34 0 0 Z " fill="#BFBFBF" transform="translate(301,394)"/>
<path d="M0 0 C0.33 0 0.66 0 1 0 C0.65500945 8.22802457 0.65500945 8.22802457 -1.75 11.0625 C-4.33448192 12.13936747 -6.22594049 12.23117163 -9 12 C-7.68 11.67 -6.36 11.34 -5 11 C-5.37125 10.13375 -5.37125 10.13375 -5.75 9.25 C-5.8325 8.5075 -5.915 7.765 -6 7 C-4.1875 4.75 -4.1875 4.75 -2 3 C-1.34 3 -0.68 3 0 3 C0 2.01 0 1.02 0 0 Z M-3 6 C-3.33 6.66 -3.66 7.32 -4 8 C-3.01 7.67 -2.02 7.34 -1 7 C-1.66 6.67 -2.32 6.34 -3 6 Z " fill="#BBBBBB" transform="translate(101,454)"/>
<path d="M0 0 C0.33 0 0.66 0 1 0 C1.19665429 3.93709911 1.38075477 7.87468672 1.5625 11.8125 C1.61857422 12.93205078 1.67464844 14.05160156 1.73242188 15.20507812 C1.78076172 16.27822266 1.82910156 17.35136719 1.87890625 18.45703125 C1.9260376 19.44678955 1.97316895 20.43654785 2.02172852 21.45629883 C2 24 2 24 1 27 C0.01 27 -0.98 27 -2 27 C-1.84152588 26.28432861 -1.68305176 25.56865723 -1.51977539 24.83129883 C-1.01543043 22.08405198 -0.79773833 19.4876077 -0.68359375 16.69921875 C-0.64169922 15.72275391 -0.59980469 14.74628906 -0.55664062 13.74023438 C-0.51732422 12.73283203 -0.47800781 11.72542969 -0.4375 10.6875 C-0.37272461 9.14739258 -0.37272461 9.14739258 -0.30664062 7.57617188 C-0.20093175 5.05090431 -0.09883532 2.52554438 0 0 Z " fill="#9C9C9C" transform="translate(269,208)"/>
<path d="M0 0 C1.6097168 0.01450195 1.6097168 0.01450195 3.25195312 0.02929688 C4.37150391 0.05443359 5.49105469 0.07957031 6.64453125 0.10546875 C7.77568359 0.11900391 8.90683594 0.13253906 10.07226562 0.14648438 C12.86766442 0.18186917 15.66211017 0.23123927 18.45703125 0.29296875 C18.45703125 0.62296875 18.45703125 0.95296875 18.45703125 1.29296875 C17.4966394 1.33055298 17.4966394 1.33055298 16.5168457 1.36889648 C13.60089399 1.48532335 10.68522835 1.60783742 7.76953125 1.73046875 C6.76212891 1.76978516 5.75472656 1.80910156 4.71679688 1.84960938 C3.74033203 1.89150391 2.76386719 1.93339844 1.7578125 1.9765625 C0.86231689 2.01322021 -0.03317871 2.04987793 -0.95581055 2.08764648 C-3.55074963 2.29358626 -6.00351559 2.73064697 -8.54296875 3.29296875 C-5.97630373 -0.00376988 -4.07133561 -0.06462437 0 0 Z " fill="#C5C5C5" transform="translate(136.54296875,191.70703125)"/>
<path d="M0 0 C3.37462715 0.54723683 5.08235 1.0549 8 3 C7.34 4.32 6.68 5.64 6 7 C3.50638429 5.79618552 1.31856917 4.54571278 -1 3 C0.32 3 1.64 3 3 3 C3 2.34 3 1.68 3 1 C2.01 0.67 1.02 0.34 0 0 Z " fill="#A1A1A1" transform="translate(94,449)"/>
<path d="M0 0 C4.75 0.75 4.75 0.75 7 3 C7 3.99 7 4.98 7 6 C3.85375007 6.26218749 2.38162983 6.24754367 -0.3125 4.5 C-0.869375 4.005 -1.42625 3.51 -2 3 C-1.01 2.67 -0.02 2.34 1 2 C0.67 1.34 0.34 0.68 0 0 Z " fill="#B4B6B7" transform="translate(299,449)"/>
<path d="M0 0 C1.32 0 2.64 0 4 0 C4.33 1.32 4.66 2.64 5 4 C3.35 4.66 1.7 5.32 0 6 C-0.99 5.01 -1.98 4.02 -3 3 C-2.34 3 -1.68 3 -1 3 C-0.67 2.01 -0.34 1.02 0 0 Z " fill="#ABACAC" transform="translate(240,459)"/>
<path d="M0 0 C0.66 0.33 1.32 0.66 2 1 C2 3.31 2 5.62 2 8 C1.01 8.33 0.02 8.66 -1 9 C-1 9.66 -1 10.32 -1 11 C-1.66 11 -2.32 11 -3 11 C-3 9.35 -3 7.7 -3 6 C-2.34 5.67 -1.68 5.34 -1 5 C-0.34444881 2.47266765 -0.34444881 2.47266765 0 0 Z " fill="#EFF4FD" transform="translate(156,452)"/>
<path d="M0 0 C1.32 0 2.64 0 4 0 C4 1.65 4 3.3 4 5 C3.34 5 2.68 5 2 5 C1.34 6.32 0.68 7.64 0 9 C0 6.03 0 3.06 0 0 Z " fill="#E7E7E7" transform="translate(231,451)"/>
<path d="M0 0 C0.66 0.33 1.32 0.66 2 1 C2 2.65 2 4.3 2 6 C2.99 6 3.98 6 5 6 C5 6.99 5 7.98 5 9 C2.03 8.505 2.03 8.505 -1 8 C-0.67 5.36 -0.34 2.72 0 0 Z " fill="#A0A1A1" transform="translate(151,457)"/>
<path d="M0 0 C3.96 0 7.92 0 12 0 C12 0.33 12 0.66 12 1 C7.545 1.495 7.545 1.495 3 2 C3.33 2.66 3.66 3.32 4 4 C2.02 4.33 0.04 4.66 -2 5 C-1.34 3.35 -0.68 1.7 0 0 Z " fill="#9F9F9F" transform="translate(196,449)"/>
<path d="M0 0 C0.33 0.99 0.66 1.98 1 3 C-1.87164566 5.70272533 -3.30991841 6.94791837 -7.3125 7.25 C-8.199375 7.1675 -9.08625 7.085 -10 7 C-10 6.67 -10 6.34 -10 6 C-8.35 6 -6.7 6 -5 6 C-4.731875 5.38125 -4.46375 4.7625 -4.1875 4.125 C-3 2 -3 2 0 0 Z " fill="#979797" transform="translate(117,459)"/>
<path d="M0 0 C1.9375 0.75 1.9375 0.75 4 2 C4.75 4.125 4.75 4.125 5 6 C3.35 6.33 1.7 6.66 0 7 C0 4.69 0 2.38 0 0 Z " fill="#ADAEAE" transform="translate(255,459)"/>
<path d="M0 0 C0.66 0 1.32 0 2 0 C3.60080151 4.00200378 2.29279692 7.04556236 1 11 C0.67 11 0.34 11 0 11 C-1.125 3.375 -1.125 3.375 0 0 Z " fill="#FEFFFE" transform="translate(172,452)"/>
<path d="M0 0 C1.65 0 3.3 0 5 0 C4.34 1.65 3.68 3.3 3 5 C2.01 4.34 1.02 3.68 0 3 C-0.99 3.495 -0.99 3.495 -2 4 C-1.34 2.68 -0.68 1.36 0 0 Z " fill="#8A8A8A" transform="translate(219,449)"/>
<path d="M0 0 C0.66 0.66 1.32 1.32 2 2 C1.01 1.67 0.02 1.34 -1 1 C-0.67 0.67 -0.34 0.34 0 0 Z M-6 2 C-4.35 2 -2.7 2 -1 2 C-1.33 2.99 -1.66 3.98 -2 5 C-3.32 5 -4.64 5 -6 5 C-6 4.01 -6 3.02 -6 2 Z " fill="#F3F3F3" transform="translate(98,460)"/>
<path d="M0 0 C1.32 0.33 2.64 0.66 4 1 C3.67 2.32 3.34 3.64 3 5 C2.01 5 1.02 5 0 5 C0 3.35 0 1.7 0 0 Z " fill="#FBFBFB" transform="translate(140,450)"/>
<path d="M0 0 C2 1 2 1 2 1 Z " fill="#FFFFFF" transform="translate(215,450)"/>
<path d="" fill="#000000" transform="translate(0,0)"/>
<path d="" fill="#FFFFFF" transform="translate(0,0)"/>
</svg>
